<?xml version="1.0" encoding="UTF-8" standalone="no"?>
<!-- Created with Inkscape (http://www.inkscape.org/) -->

<svg
   xmlns:dc="http://purl.org/dc/elements/1.1/"
   xmlns:cc="http://creativecommons.org/ns#"
   xmlns:rdf="http://www.w3.org/1999/02/22-rdf-syntax-ns#"
   xmlns:svg="http://www.w3.org/2000/svg"
   xmlns="http://www.w3.org/2000/svg"
   xmlns:sodipodi="http://sodipodi.sourceforge.net/DTD/sodipodi-0.dtd"
   xmlns:inkscape="http://www.inkscape.org/namespaces/inkscape"
   width="32mm"
   height="32mm"
   viewBox="0 0 32 32"
   version="1.1"
   id="svg4534"
   inkscape:version="0.92.1 r15371"
   sodipodi:docname="led_strip.svg">
  <defs
     id="defs4528" />
  <sodipodi:namedview
     id="base"
     pagecolor="#ffffff"
     bordercolor="#666666"
     borderopacity="1.0"
     inkscape:pageopacity="0.0"
     inkscape:pageshadow="2"
     inkscape:zoom="0.35"
     inkscape:cx="-292.85714"
     inkscape:cy="560"
     inkscape:document-units="mm"
     inkscape:current-layer="layer1"
     showgrid="false"
     inkscape:window-width="1366"
     inkscape:window-height="705"
     inkscape:window-x="-8"
     inkscape:window-y="-8"
     inkscape:window-maximized="1" />
  <metadata
     id="metadata4531">
    <rdf:RDF>
      <cc:Work
         rdf:about="">
        <dc:format>image/svg+xml</dc:format>
        <dc:type
           rdf:resource="http://purl.org/dc/dcmitype/StillImage" />
        <dc:title></dc:title>
      </cc:Work>
    </rdf:RDF>
  </metadata>
  <g
     inkscape:label="Layer 1"
     inkscape:groupmode="layer"
     id="layer1"
     transform="translate(0,-265)">
    <g
       id="g4510"
       transform="matrix(-0.56126601,-0.56126601,0.56126601,-0.56126601,16.631231,337.25123)">
      <rect
         id="rect2"
         height="85.000999"
         width="1"
         transform="matrix(0.7071,0.7071,-0.7071,0.7071,42.9292,-17.7819)"
         y="0.42899999"
         x="42.429001" />
      <rect
         id="rect4"
         height="85"
         width="1"
         transform="matrix(0.7071,0.7071,-0.7071,0.7071,57.071,-23.6396)"
         y="14.571"
         x="56.570999" />
      <path
         id="path6"
         d="m 76.252,26.047 4.95,-4.95 -0.531,-0.53 -4.949,4.95 -1.06,-1.06 2.475,-2.475 c 0.059,-0.059 0.097,-0.136 0.106,-0.219 l 0.382,-3.098 0.572,-0.572 -0.531,-0.53 -0.663,0.663 c -0.059,0.059 -0.097,0.136 -0.106,0.219 l -0.382,3.098 -2.384,2.383 -2.563,-2.563 c -0.188,-0.188 -0.52,-0.188 -0.707,0 l -7.07,7.071 c -0.195,0.195 -0.195,0.512 0,0.707 l 1.149,1.149 -2.078,2.077 c -0.06,0.059 -0.098,0.136 -0.107,0.219 l -0.382,3.098 -2.383,2.383 -2.563,-2.563 c -0.195,-0.195 -0.512,-0.195 -0.707,0 l -7.071,7.071 c -0.094,0.094 -0.146,0.221 -0.146,0.354 0,0.133 0.053,0.26 0.146,0.354 l 1.149,1.149 -2.077,2.078 c -0.059,0.059 -0.097,0.136 -0.107,0.219 l -0.382,3.098 -2.384,2.383 -2.563,-2.563 c -0.188,-0.188 -0.52,-0.188 -0.707,0 l -7.071,7.071 c -0.195,0.195 -0.195,0.512 0,0.707 l 1.149,1.149 -2.077,2.077 c -0.059,0.06 -0.097,0.137 -0.107,0.22 L 34.09,63.97 31.706,66.353 29.143,63.79 c -0.195,-0.195 -0.512,-0.195 -0.707,0 l -7.071,7.07 c -0.094,0.094 -0.146,0.221 -0.146,0.354 0,0.133 0.053,0.26 0.146,0.354 l 1.149,1.149 -2.078,2.078 c -0.059,0.059 -0.097,0.136 -0.107,0.219 l -0.381,3.098 -0.97,0.969 0.53,0.531 1.061,-1.061 c 0.059,-0.06 0.097,-0.137 0.107,-0.22 l 0.381,-3.098 1.986,-1.987 2.475,2.475 -4.95,4.949 0.53,0.531 4.95,-4.95 2.386,2.386 c 0.094,0.094 0.221,0.146 0.354,0.146 0.133,0 0.26,-0.053 0.354,-0.146 l 7.071,-7.071 c 0.094,-0.094 0.146,-0.221 0.146,-0.354 0,-0.133 -0.053,-0.26 -0.146,-0.354 l -2.386,-2.386 6.364,-6.364 2.386,2.387 c 0.094,0.094 0.221,0.146 0.354,0.146 0.133,0 0.26,-0.053 0.354,-0.146 l 7.071,-7.071 c 0.195,-0.195 0.195,-0.512 0,-0.707 l -2.387,-2.387 6.364,-6.364 2.387,2.387 c 0.098,0.098 0.226,0.146 0.354,0.146 0.128,0 0.256,-0.049 0.354,-0.146 l 7.071,-7.071 c 0.094,-0.094 0.146,-0.221 0.146,-0.354 0,-0.133 -0.053,-0.26 -0.146,-0.354 l -2.387,-2.386 6.364,-6.364 2.386,2.386 c 0.094,0.094 0.221,0.146 0.354,0.146 0.133,0 0.26,-0.053 0.354,-0.146 l 7.071,-7.071 c 0.094,-0.094 0.146,-0.221 0.146,-0.354 0,-0.133 -0.053,-0.26 -0.146,-0.354 z m -47.465,51.53 -6.364,-6.364 6.364,-6.363 6.364,6.363 z m 4.507,-9.634 -1.06,-1.06 2.475,-2.474 c 0.059,-0.06 0.097,-0.137 0.107,-0.22 l 0.382,-3.099 1.986,-1.986 2.474,2.474 z m 9.635,-4.507 -6.364,-6.364 6.364,-6.364 6.364,6.364 z m 4.507,-9.636 -1.06,-1.06 2.475,-2.475 c 0.059,-0.059 0.097,-0.136 0.107,-0.219 l 0.382,-3.098 1.986,-1.986 2.474,2.474 z m 9.635,-4.507 -6.364,-6.364 6.364,-6.364 6.364,6.364 z m 4.508,-9.635 -1.06,-1.06 2.475,-2.475 c 0.059,-0.059 0.097,-0.136 0.106,-0.219 l 0.382,-3.098 1.987,-1.986 2.474,2.475 z m 9.634,-4.507 -6.363,-6.364 6.363,-6.364 6.364,6.364 z"
         inkscape:connector-curvature="0" />
      <path
         id="path8"
         d="m 71.184,32.191 c -0.901,0 -1.749,-0.351 -2.387,-0.989 -0.637,-0.637 -0.988,-1.485 -0.988,-2.386 0,-0.901 0.352,-1.749 0.988,-2.387 1.275,-1.274 3.498,-1.274 4.773,0 0.637,0.638 0.988,1.485 0.988,2.387 0,0.902 -0.352,1.749 -0.989,2.386 -0.636,0.638 -1.483,0.989 -2.385,0.989 z m 0,-6 c -0.701,0 -1.36,0.273 -1.856,0.769 -0.495,0.496 -0.769,1.155 -0.769,1.856 0,0.701 0.273,1.36 0.769,1.856 0.992,0.992 2.722,0.992 3.712,0 0.496,-0.496 0.77,-1.155 0.77,-1.856 0,-0.701 -0.273,-1.36 -0.77,-1.856 -0.496,-0.496 -1.155,-0.769 -1.856,-0.769 z"
         inkscape:connector-curvature="0" />
      <path
         id="path10"
         d="m 57.071,46.304 c -0.901,0 -1.749,-0.351 -2.387,-0.988 -0.637,-0.637 -0.988,-1.485 -0.988,-2.386 0,-0.902 0.352,-1.75 0.989,-2.387 1.273,-1.274 3.498,-1.274 4.771,0 0.638,0.637 0.989,1.485 0.989,2.387 0,0.901 -0.352,1.749 -0.989,2.386 -0.636,0.637 -1.483,0.988 -2.385,0.988 z m 0,-6 c -0.701,0 -1.36,0.273 -1.855,0.769 -0.496,0.496 -0.77,1.155 -0.77,1.856 0,0.701 0.273,1.36 0.769,1.856 0.992,0.991 2.721,0.991 3.713,0 0.495,-0.496 0.769,-1.155 0.769,-1.856 0,-0.702 -0.273,-1.361 -0.769,-1.856 -0.496,-0.496 -1.156,-0.769 -1.857,-0.769 z"
         inkscape:connector-curvature="0" />
      <path
         id="path12"
         d="m 42.929,60.446 c -0.902,0 -1.75,-0.352 -2.387,-0.989 -0.637,-0.637 -0.988,-1.484 -0.988,-2.386 0,-0.902 0.351,-1.749 0.988,-2.387 1.273,-1.273 3.498,-1.275 4.773,0.001 0.637,0.637 0.988,1.484 0.988,2.386 0,0.902 -0.351,1.749 -0.988,2.386 -0.637,0.638 -1.484,0.989 -2.386,0.989 z m 0,-6 c -0.702,0 -1.361,0.273 -1.856,0.769 -0.496,0.496 -0.769,1.155 -0.769,1.856 0,0.701 0.273,1.36 0.769,1.856 0.991,0.99 2.721,0.99 3.712,0 0.496,-0.496 0.769,-1.155 0.769,-1.856 0,-0.701 -0.273,-1.36 -0.769,-1.855 -0.495,-0.496 -1.155,-0.77 -1.856,-0.77 z"
         inkscape:connector-curvature="0" />
      <path
         id="path14"
         d="m 28.787,74.588 c -0.901,0 -1.749,-0.351 -2.386,-0.987 -1.315,-1.316 -1.315,-3.458 0,-4.773 1.274,-1.275 3.498,-1.274 4.773,-0.001 1.315,1.316 1.315,3.458 0,4.773 -0.638,0.637 -1.486,0.988 -2.387,0.988 z m 0,-6 c -0.701,0 -1.36,0.273 -1.856,0.769 -1.023,1.024 -1.023,2.689 0,3.714 0.991,0.99 2.72,0.991 3.712,-0.001 1.023,-1.023 1.023,-2.688 0,-3.713 -0.496,-0.496 -1.155,-0.769 -1.856,-0.769 z"
         inkscape:connector-curvature="0" />
    </g>
  </g>
</svg>
